<?xml version="1.0" encoding="UTF-8" standalone="no"?>
<!-- Created with Inkscape (http://www.inkscape.org/) -->
<svg
   width="480"
   height="192"
   viewBox="0 0 480 192"
   version="1.1"
   id="svg1"
   xmlns:xlink="http://www.w3.org/1999/xlink"
   xmlns="http://www.w3.org/2000/svg"
   xmlns:svg="http://www.w3.org/2000/svg">
  <defs
     id="defs1">
    <linearGradient
       id="gradientGreen">
      <stop
         style="stop-color:#1b5e20;stop-opacity:1;"
         offset="0"
         id="stop45" />
      <stop
         style="stop-color:#8bc34a;stop-opacity:1;"
         offset="1"
         id="stop46" />
    </linearGradient>
    <linearGradient
       id="gradientBlue">
      <stop
         style="stop-color:#01579b;stop-opacity:1;"
         offset="0"
         id="stop43" />
      <stop
         style="stop-color:#039be5;stop-opacity:1;"
         offset="1"
         id="stop44" />
    </linearGradient>
    <linearGradient
       xlink:href="#gradientGreen"
       id="greenGradient"
       x1="-7.6294e-06"
       y1="128.7"
       x2="480"
       y2="128.7"
       gradientUnits="userSpaceOnUse" />
    <linearGradient
       xlink:href="#gradientBlue"
       id="blueGradient"
       gradientUnits="userSpaceOnUse"
       x1="0"
       y1="0"
       x2="480"
       y2="0" />
  </defs>
  <path
     id="background"
     style="display:inline;fill:url(#greenGradient);stroke-width:0"
     d="M 0,65.407 H 480 V 192 H 0 Z" />
  <path
     id="top-half"
     style="display:inline;fill:url(#blueGradient);stroke-width:5;stroke-dasharray:none"
     d="M 0,0 V 94.178 C 7.579,86.439 17.543,83.555 25.695,77.865 32.383,75.7 40.084,68.419 48.24,66.914 c 13.791,-3.443 28.094,4.012 41.307,7.838 7.02,4.67 12.153,6.934 18.683,12.459 10.97,7.179 22.83,17.049 34.26,22.579 5.18,4.7 11.69,9.69 19.79,11.88 14.07,2.5 30.67,1.99 42.51,-1.76 10.34,-3.62 17.92,-11.5 27.73,-17.82 2.94,-3.688 11.68,-10.624 15.87,-14.102 7.69,-4.075 13.25,-10.248 20.25,-13.236 5.55,-3.838 10.95,-5.028 18.68,-6.231 7.21,0.308 17.97,2.222 26.48,-0.779 11.87,-0.95 26.21,-0.03 35.04,6.231 7.03,2.313 11.99,6.408 19.07,9.732 7.22,3.216 11.57,7.542 19.86,10.514 4.74,2.948 9.96,6.291 14.02,9.341 5.46,3.73 14.54,11.5 22.58,7.01 4.93,-7.24 13.45,-15.052 21.02,-20.246 4.94,-4.736 8.77,-7.318 14.8,-12.459 6.02,-3.389 20.59,-9.937 20.59,-9.937 C 480.75,45.437 480,22.563 480,0 Z" />
  <path
     id="lines"
     style="display:inline;fill:none;fill-opacity:1;stroke:#ffffff;stroke-width:5;stroke-linecap:round;stroke-linejoin:round;stroke-dasharray:none;stroke-opacity:1"
     d="m 240,96.002 c 15.8,-14.006 34.41,-32.672 57.57,-27.872 33.8,9.013 50.62,46.53 84.35,55.7 22.38,4.96 40.93,-12.73 56.23,-26.388 12.59,-11.051 25.03,-23.761 41.51,-28.703 M 239.99,96.002 c 26.65,-16.432 57.15,-33.955 89.71,-27.326 47.19,9.102 81.05,52.004 129.88,55.864 6.71,0.36 13.47,-0.1 20.08,-1.31 M -0.38238,95.9 C 19.855,80.598 43.76,62.268 70.802,68.414 c 38.768,9.237 62.348,48.916 102.078,55.716 25.74,3.81 47.83,-13.84 67.16,-28.163" />
  <path
     id="infill"
     d="m 240,96.002 c 13.98,-12.21 28.6,-27.221 48.2,-28.654 19.37,-0.665 34.61,13.625 48.2,25.537 14.71,12.715 29.28,28.785 49.54,31.605 18.4,2.01 33.89,-10.94 46.85,-22.26 14.53,-12.393 28.06,-27.717 46.87,-33.491 v 54.491 c -1.78,0.34 -3.57,0.6 -5.36,0.83 -25.79,3.52 -50.68,-7.9 -72.3,-20.79 -26.02,-14.988 -51.96,-34.098 -83.01,-35.861 -29.09,-1.642 -55.05,14.132 -79,28.593 z"
     style="display:inline;fill:#00accc;fill-opacity:1;stroke-width:5;stroke-dasharray:none" />
</svg>
