<?xml version="1.0" encoding="UTF-8"?>
<svg width="366.36mm" height="342.71mm" version="1.1" viewBox="0 0 366.36 342.71" xmlns="http://www.w3.org/2000/svg">
<g transform="translate(115.68 21.402)" fill="#fff" fill-opacity=".25">
<g transform="matrix(-.18709 -.18709 .18709 -.18709 -73.923 342.65)" stroke-width="1.0016">
<path class="cls-2" transform="translate(-57.37,-42.6)" d="m186.55 798.94 1.68-1.67a20.36 20.36 0 00-1.68 1.67z"/>
<path class="cls-2" transform="translate(-57.37,-42.6)" d="m289.05 899.1-.66.66z"/>
<path class="cls-2" transform="translate(-57.37,-42.6)" d="m274.42 905.38a20.14 20.14 0 0014-5.62l.66-.66a20.13 20.13 0 005.61-14v-10.03l-30.3 30.31z"/>
<polygon class="cls-2" points="237.29 814.04 237.29 795.62 170.14 862.77 188.55 862.77"/>
<path class="cls-2" transform="translate(-57.37,-42.6)" d="m288.1 807.93-95.32 95.32a20.18 20.18 0 008.91 2.09h7.42l85.58-85.59v-7.41a20.08 20.08 0 00-2.09-8.92l-4.43 4.43z"/>
<path class="cls-2" transform="translate(-57.37,-42.6)" d="m181.42 885.14a20.18 20.18 0 002.1 8.94l95.33-95.32 4.44-4.44a20.19 20.19 0 00-8.95-2.1h-7.37l-85.63 85.63z"/>
<polygon class="cls-2" points="191.25 749.53 172.83 749.53 124.05 798.32 124.05 816.73"/>
<path class="cls-2" transform="translate(-57.37,-42.6)" d="m181.42 822.49 30.35-30.35h-10.11a20.13 20.13 0 00-13.43 5.13l-1.68 1.67a20.16 20.16 0 00-5.13 13.44z"/>
</g>
<g transform="matrix(.18709 .18709 -.18709 .18709 44.042 44.157)" stroke-width="1.0016">
<path class="cls-1" transform="translate(-57.37,-42.6)" d="m784.59 493.37h-25.2a6.3 6.3 0 100 12.6h25.2a6.29 6.29 0 000-12.58z"/>
<path class="cls-1" transform="translate(-57.37,-42.6)" d="m740.49 499.66a6.3 6.3 0 10-6.3 6.3 6.3 6.3 0 006.3-6.3z"/>
<path class="cls-1" transform="translate(-57.37,-42.6)" d="m709 493.36h-25.2a6.3 6.3 0 100 12.6h25.2a6.3 6.3 0 000-12.6z"/>
<path class="cls-1" transform="translate(-57.37,-42.6)" d="m784.59 468.16h-50.4a6.3 6.3 0 000 12.6h50.4a6.3 6.3 0 000-12.6z"/>
<path class="cls-1" transform="translate(-57.37,-42.6)" d="m709 479.19a4.73 4.73 0 10-4.73-4.73 4.72 4.72 0 004.73 4.73z"/>
<path class="cls-1" transform="translate(-57.37,-42.6)" d="m683.8 470.92a3.54 3.54 0 103.54 3.54 3.53 3.53 0 00-3.54-3.54z"/>
<path class="cls-1" transform="translate(-57.37,-42.6)" d="m683.8 445.72a3.55 3.55 0 103.54 3.54 3.54 3.54 0 00-3.54-3.54z"/>
<path class="cls-1" transform="translate(-57.37,-42.6)" d="m683.8 520.13a4.73 4.73 0 104.72 4.72 4.72 4.72 0 00-4.72-4.72z"/>
<path class="cls-1" transform="translate(-57.37,-42.6)" d="m784.59 443a6.3 6.3 0 106.3 6.3 6.31 6.31 0 00-6.3-6.3z"/>
<path class="cls-1" transform="translate(-57.37,-42.6)" d="m754.67 449.26a4.72 4.72 0 104.72-4.72 4.72 4.72 0 00-4.72 4.72z"/>
<path class="cls-1" transform="translate(-57.37,-42.6)" d="m730.65 449.26a3.55 3.55 0 103.54-3.54 3.55 3.55 0 00-3.54 3.54z"/>
<path class="cls-1" transform="translate(-57.37,-42.6)" d="m709 452.81a3.55 3.55 0 10-3.55-3.55 3.55 3.55 0 003.55 3.55z"/>
<path class="cls-1" transform="translate(-57.37,-42.6)" d="m759.39 430.37h25.2a6.3 6.3 0 000-12.6h-25.2a6.3 6.3 0 100 12.6z"/>
<path class="cls-1" transform="translate(-57.37,-42.6)" d="m734.19 430.37a6.3 6.3 0 10-6.3-6.3 6.3 6.3 0 006.3 6.3z"/>
<circle class="cls-1" cx="645.32" cy="482.25" r="6.3"/>
<path class="cls-1" transform="translate(-57.37,-42.6)" d="m709 428.79a4.73 4.73 0 10-4.72-4.72 4.72 4.72 0 004.72 4.72z"/>
<path class="cls-1" transform="translate(-57.37,-42.6)" d="m683.79 427.61a3.55 3.55 0 10-3.54-3.54 3.54 3.54 0 003.54 3.54z"/>
<path class="cls-1" transform="translate(-57.37,-42.6)" d="m784.59 518.57h-63a6.3 6.3 0 100 12.59h63a6.29 6.29 0 000-12.57z"/>
</g>
<g stroke-width=".265">
<rect class="cls-2" transform="matrix(-.70711 .70711 .70711 .70711 0 0)" x="-66.06" y="94.23" width="63.172" height="63.172" rx="5.4504"/>
<rect class="cls-2" transform="rotate(45)" x="193.41" y="198.56" width="63.172" height="63.172" rx="5.4504"/>
<rect class="cls-3" transform="matrix(-.70711 .70711 .70711 .70711 0 0)" x="33.158" y="259.59" width="29.961" height="29.961" rx="5.3552"/>
</g>
<g stroke-width="1.0016">
<g transform="matrix(-.18709 .18709 .18709 .18709 229.73 -96.136)">
<path class="cls-4" transform="translate(-57.37,-42.6)" d="m560.39 649.8-1.67-1.67a18.8 18.8 0 001.67 1.67z"/>
<path class="cls-4" transform="translate(-57.37,-42.6)" d="m660.55 547.3.66.66z"/>
<path class="cls-4" transform="translate(-57.37,-42.6)" d="m666.83 561.93a20.18 20.18 0 00-5.62-14l-.66-.66a20.13 20.13 0 00-14-5.61h-10.03l30.31 30.34z"/>
<polygon class="cls-4" points="609.45 566.24 609.45 547.82 560.72 499.08 542.3 499.08"/>
<path class="cls-4" transform="translate(-57.37,-42.6)" d="m569.38 548.25 95.32 95.31a20.18 20.18 0 002.09-8.91v-7.41l-85.59-85.59h-7.42a20 20 0 00-8.91 2.09l4.43 4.43z"/>
<path class="cls-4" transform="translate(-57.37,-42.6)" d="m646.59 654.93a20.18 20.18 0 008.94-2.1l-95.33-95.33-4.51-4.5a20 20 0 00-2.11 8.94v7.37l85.64 85.63z"/>
<polygon class="cls-4" points="545 612.33 563.41 612.33 496.21 545.13 496.21 563.54"/>
<path class="cls-4" transform="translate(-57.37,-42.6)" d="m583.94 654.93-30.36-30.35v10.11a20.13 20.13 0 005.14 13.44l1.67 1.67a20.13 20.13 0 0013.43 5.13z"/>
</g>
<g transform="matrix(-.18709 .18709 .18709 .18709 43.098 -49.981)">
<path class="cls-2" transform="translate(-57.37,-42.6)" d="m186.55 798.94 1.68-1.67a20.36 20.36 0 00-1.68 1.67z"/>
<path class="cls-2" transform="translate(-57.37,-42.6)" d="m289.05 899.1-.66.66z"/>
<path class="cls-2" transform="translate(-57.37,-42.6)" d="m274.42 905.38a20.14 20.14 0 0014-5.62l.66-.66a20.13 20.13 0 005.61-14v-10.03l-30.3 30.31z"/>
<polygon class="cls-2" points="170.14 862.77 188.55 862.77 237.29 814.04 237.29 795.62"/>
<path class="cls-2" transform="translate(-57.37,-42.6)" d="m288.1 807.93-95.32 95.32a20.18 20.18 0 008.91 2.09h7.42l85.58-85.59v-7.41a20.08 20.08 0 00-2.09-8.92l-4.43 4.43z"/>
<path class="cls-2" transform="translate(-57.37,-42.6)" d="m181.42 885.14a20.18 20.18 0 002.1 8.94l95.33-95.32 4.44-4.44a20.19 20.19 0 00-8.95-2.1h-7.37l-85.63 85.63z"/>
<polygon class="cls-2" points="124.05 798.32 124.05 816.73 191.25 749.53 172.83 749.53"/>
<path class="cls-2" transform="translate(-57.37,-42.6)" d="m181.42 822.49 30.35-30.35h-10.11a20.13 20.13 0 00-13.43 5.13l-1.68 1.67a20.16 20.16 0 00-5.13 13.44z"/>
</g>
<g transform="matrix(-.18709 .18709 .18709 .18709 113.69 -212.59)">
<g stroke-width="1.0016">
<circle class="cls-3" cx="454.35" cy="980.77" r="6.31"/>
<circle class="cls-3" transform="rotate(-13.28 274.95 1248.7)" cx="486.5" cy="1023.4" r="6.31"/>
<circle class="cls-3" transform="rotate(-13.28 249.7 1248.7)" cx="461.27" cy="1023.4" r="6.31"/>
<circle class="cls-3" transform="rotate(-13.28 319.07 1223.4)" cx="530.65" cy="998.15" r="12.61"/>
<circle class="cls-3" cx="378.67" cy="955.54" r="6.31"/>
<circle class="cls-3" cx="479.58" cy="930.31" r="6.31"/>
<circle class="cls-3" cx="454.35" cy="930.31" r="6.31"/>
<circle class="cls-3" cx="378.67" cy="930.31" r="6.31"/>
<circle class="cls-3" cx="479.58" cy="905.09" r="6.31"/>
<circle class="cls-3" transform="rotate(-45 431.61 995.64)" cx="511.72" cy="947.69" r="12.61"/>
<circle class="cls-3" transform="rotate(-13.28 274.93 1173)" cx="486.5" cy="947.69" r="6.31"/>
<circle class="cls-3" transform="rotate(-13.28 249.68 1173)" cx="461.27" cy="947.69" r="6.31"/>
<circle class="cls-3" cx="378.67" cy="905.09" r="6.31"/>
<circle class="cls-3" transform="rotate(-13.28 325.38 1148)" cx="536.95" cy="922.68" r="6.31"/>
<circle class="cls-3" cx="454.35" cy="879.86" r="6.31"/>
<circle class="cls-3" transform="rotate(-13.28 274.95 1147.8)" cx="486.5" cy="922.46" r="6.31"/>
</g>
<circle class="cls-3" transform="matrix(.97 -.23 .23 .97 -256.97 88.05)" cx="461.27" cy="922.46" r="6.31" stroke-width="1.0047"/>
<g stroke-width="1.0016">
<circle class="cls-3" transform="rotate(-13.28 224.45 1248.7)" cx="436.04" cy="1023.4" r="6.31"/>
<circle class="cls-3" transform="rotate(-13.28 227.61 1150.9)" cx="439.19" cy="925.62" r="9.46"/>
<circle class="cls-3" transform="rotate(-13.28 325.41 1248.7)" cx="536.95" cy="1023.4" r="6.31"/>
<circle class="cls-3" transform="rotate(-13.28 262.29 1210.8)" cx="473.88" cy="985.53" r="25.23"/>
</g>
</g>
<g transform="matrix(.18709 .18709 -.18709 .18709 112.98 114.23)">
<g stroke-width="1.0016">
<circle class="cls-1" cx="253.86" cy="704.87" r="6.36"/>
<circle class="cls-1" transform="rotate(-13.28 99.645 947.26)" cx="311.23" cy="722.02" r="6.36"/>
<circle class="cls-1" transform="rotate(-13.28 99.644 921.83)" cx="311.23" cy="696.58" r="6.36"/>
<circle class="cls-1" transform="rotate(-13.28 112.35 985.44)" cx="323.96" cy="760.2" r="6.36"/>
<circle class="cls-1" cx="266.58" cy="692.14" r="6.36"/>
<circle class="cls-1" cx="266.58" cy="666.7" r="6.36"/>
<circle class="cls-1" cx="266.58" cy="641.25" r="6.36"/>
<circle class="cls-1" transform="rotate(-13.28 125.1 998.19)" cx="336.68" cy="772.92" r="6.36"/>
<circle class="cls-1" transform="rotate(-13.28 125.06 972.72)" cx="336.68" cy="747.47" r="6.36"/>
<circle class="cls-1" cx="279.31" cy="679.42" r="6.36"/>
<circle class="cls-1" cx="279.31" cy="653.97" r="6.36"/>
<circle class="cls-1" cx="279.31" cy="628.52" r="6.36"/>
<circle class="cls-1" cx="292.03" cy="717.59" r="6.36"/>
<circle class="cls-1" transform="rotate(-13.28 137.82 960.02)" cx="349.41" cy="734.75" r="6.36"/>
<circle class="cls-1" transform="rotate(-13.28 137.82 934.55)" cx="349.41" cy="709.3" r="6.36"/>
<circle class="cls-1" transform="rotate(-13.28 137.83 909.08)" cx="349.41" cy="683.85" r="6.36"/>
<circle class="cls-1" cx="304.76" cy="730.31" r="6.36"/>
<circle class="cls-1" cx="304.76" cy="704.87" r="6.36"/>
<circle class="cls-1" transform="rotate(-13.28 150.53 947.26)" cx="362.13" cy="722.02" r="6.36"/>
<circle class="cls-1" transform="rotate(-13.28 150.53 921.84)" cx="362.13" cy="696.58" r="6.36"/>
<circle class="cls-1" cx="304.76" cy="628.52" r="6.36"/>
<circle class="cls-1" cx="317.48" cy="717.59" r="6.36"/>
<circle class="cls-1" transform="rotate(-13.28 163.24 960.02)" cx="374.85" cy="734.75" r="6.36"/>
</g>
<circle class="cls-1" transform="matrix(.97 -.23 .23 .97 -210.31 62.49)" cx="374.85" cy="709.3" r="6.36" stroke-width="1.0047"/>
<g stroke-width="1.0016">
<circle class="cls-1" transform="rotate(-13.28 163.25 909.08)" cx="374.85" cy="683.85" r="6.36"/>
<circle class="cls-1" cx="330.2" cy="730.31" r="6.36"/>
<circle class="cls-1" cx="330.2" cy="704.87" r="6.36"/>
<circle class="cls-1" transform="rotate(-13.28 176 947.27)" cx="387.58" cy="722.02" r="6.36"/>
<circle class="cls-1" transform="rotate(-13.28 176 921.84)" cx="387.58" cy="696.58" r="6.36"/>
<circle class="cls-1" cx="330.2" cy="628.52" r="6.36"/>
<circle class="cls-1" transform="rotate(-9.22 107.29 1094.4)" cx="400.3" cy="760.2" r="6.36"/>
<circle class="cls-1" transform="rotate(-67.5 339.73 756.38)" cx="400.3" cy="734.75" r="6.36"/>
<circle class="cls-1" transform="rotate(-67.5 339.73 730.93)" cx="400.3" cy="709.3" r="6.36"/>
<circle class="cls-1" transform="rotate(-67.5 339.73 705.48)" cx="400.3" cy="683.85" r="6.36"/>
<circle class="cls-1" transform="rotate(-13.28 201.24 998.18)" cx="412.81" cy="772.92" r="6.36"/>
<circle class="cls-1" cx="355.65" cy="704.87" r="6.36"/>
<circle class="cls-1" transform="rotate(-13.28 201.42 947.27)" cx="413.02" cy="722.02" r="6.36"/>
<circle class="cls-1" transform="rotate(-13.28 201.43 921.8)" cx="413.02" cy="696.58" r="6.36"/>
<circle class="cls-1" transform="rotate(-13.28 99.649 896.37)" cx="311.23" cy="671.13" r="6.36"/>
<circle class="cls-1" transform="rotate(-13.28 201.43 896.38)" cx="413.02" cy="671.13" r="6.36"/>
<circle class="cls-1" transform="rotate(-13.28 99.637 998.19)" cx="311.23" cy="772.92" r="6.36"/>
</g>
</g>
<g transform="matrix(-.18709 -.18709 .18709 -.18709 205.91 295.3)">
<path class="cls-1" transform="translate(-57.37,-42.6)" d="m784.59 493.37h-25.2a6.3 6.3 0 100 12.6h25.2a6.29 6.29 0 000-12.58z"/>
<path class="cls-1" transform="translate(-57.37,-42.6)" d="m740.49 499.66a6.3 6.3 0 10-6.3 6.3 6.3 6.3 0 006.3-6.3z"/>
<path class="cls-1" transform="translate(-57.37,-42.6)" d="m709 493.36h-25.2a6.3 6.3 0 100 12.6h25.2a6.3 6.3 0 000-12.6z"/>
<path class="cls-1" transform="translate(-57.37,-42.6)" d="m784.59 468.16h-50.4a6.3 6.3 0 000 12.6h50.4a6.3 6.3 0 000-12.6z"/>
<path class="cls-1" transform="translate(-57.37,-42.6)" d="m709 479.19a4.73 4.73 0 10-4.73-4.73 4.72 4.72 0 004.73 4.73z"/>
<path class="cls-1" transform="translate(-57.37,-42.6)" d="m683.8 470.92a3.54 3.54 0 103.54 3.54 3.53 3.53 0 00-3.54-3.54z"/>
<path class="cls-1" transform="translate(-57.37,-42.6)" d="m683.8 445.72a3.55 3.55 0 103.54 3.54 3.54 3.54 0 00-3.54-3.54z"/>
<path class="cls-1" transform="translate(-57.37,-42.6)" d="m683.8 520.13a4.73 4.73 0 104.72 4.72 4.72 4.72 0 00-4.72-4.72z"/>
<path class="cls-1" transform="translate(-57.37,-42.6)" d="m784.59 443a6.3 6.3 0 106.3 6.3 6.31 6.31 0 00-6.3-6.3z"/>
<path class="cls-1" transform="translate(-57.37,-42.6)" d="m754.67 449.26a4.72 4.72 0 104.72-4.72 4.72 4.72 0 00-4.72 4.72z"/>
<path class="cls-1" transform="translate(-57.37,-42.6)" d="m730.65 449.26a3.55 3.55 0 103.54-3.54 3.55 3.55 0 00-3.54 3.54z"/>
<path class="cls-1" transform="translate(-57.37,-42.6)" d="m709 452.81a3.55 3.55 0 10-3.55-3.55 3.55 3.55 0 003.55 3.55z"/>
<path class="cls-1" transform="translate(-57.37,-42.6)" d="m759.39 430.37h25.2a6.3 6.3 0 000-12.6h-25.2a6.3 6.3 0 100 12.6z"/>
<path class="cls-1" transform="translate(-57.37,-42.6)" d="m734.19 430.37a6.3 6.3 0 10-6.3-6.3 6.3 6.3 0 006.3 6.3z"/>
<circle class="cls-1" cx="645.32" cy="482.25" r="6.3"/>
<path class="cls-1" transform="translate(-57.37,-42.6)" d="m709 428.79a4.73 4.73 0 10-4.72-4.72 4.72 4.72 0 004.72 4.72z"/>
<path class="cls-1" transform="translate(-57.37,-42.6)" d="m683.79 427.61a3.55 3.55 0 10-3.54-3.54 3.54 3.54 0 003.54 3.54z"/>
<path class="cls-1" transform="translate(-57.37,-42.6)" d="m784.59 518.57h-63a6.3 6.3 0 100 12.59h63a6.29 6.29 0 000-12.57z"/>
</g>
<g transform="matrix(-.18709 -.18709 .18709 -.18709 -3.6375 272.87)">
<path class="cls-2" transform="translate(-57.37,-42.6)" d="m57.37 129v15.4a11.7 11.7 0 0011.71 11.7h15.35a64.44 64.44 0 01-27.06-27.1z"/>
<path class="cls-2" transform="translate(-57.37,-42.6)" d="m57.48 99.41a56.7 56.7 0 0056.7 56.69h.91a3.84 3.84 0 00-1-.14 56.6 56.6 0 1156.59-56.6 3.76 3.76 0 00.14 1v-.89a56.7 56.7 0 10-113.39 0z"/>
<path class="cls-2" transform="translate(-57.37,-42.6)" d="m114.13 42.76a56.6 56.6 0 100 113.19 3.84 3.84 0 011 .14h44.08a11.7 11.7 0 0011.7-11.7v-44.09a3.76 3.76 0 01-.14-1 56.65 56.65 0 00-56.64-56.54zm36.22 20.37a51.27 51.27 0 010 72.45 3.7123 3.7123 0 01-5.25-5.25 43.85 43.85 0 000-62 3.7123 3.7123 0 115.25-5.25zm2.36 36.22a38.62 38.62 0 01-38.58 38.58 3.72 3.72 0 110-7.43 31.15 31.15 0 10-31.13-31.15 3.72 3.72 0 11-7.43 0 38.58 38.58 0 0177.16 0zm-38 19.19a18.6 18.6 0 005.46-.82l.26-.08.22-.08a18.46 18.46 0 006.94-4.38l.21-.19.19-.21a18.46 18.46 0 004.38-6.94c0-.07.05-.15.08-.22s0-.18.08-.26a18.6 18.6 0 00.82-5.46 3.94 3.94 0 01.08-.77 18.59 18.59 0 00-5.43-12.7 3.72 3.72 0 015.26-5.26 26.35 26.35 0 01-37.26 37.27 3.72 3.72 0 015.26-5.26 18.52 18.52 0 0012.7 5.44 3.94 3.94 0 01.79-.08zm-23-15.47a3.72 3.72 0 01-3.72-3.72 26.1 26.1 0 0126.07-26.06 3.72 3.72 0 010 7.43 18.66 18.66 0 00-18.57 18.63 3.71 3.71 0 01-3.71 3.72zm-13.47 32.81c-.12-.1-.23-.19-.34-.3a51.28 51.28 0 01-10.9-16.13c-.07-.17-.14-.33-.2-.5l-.2-.47a50.92 50.92 0 01-3.7-19.13 3.15 3.15 0 010-.44 51.06 51.06 0 0115-35.78 3.72 3.72 0 115.26 5.25 43.88 43.88 0 00-9.66 47.33l.16.39.18.43a43.86 43.86 0 0040.29 26.62 3.75 3.75 0 012.63 1.09 3.73 3.73 0 01-2.63 6.35 51.06 51.06 0 01-35.89-14.71z"/>
<path class="cls-2" transform="translate(-57.37,-42.6)" d="m84.44 42.6h-15.36a11.71 11.71 0 00-11.71 11.71v15.36a64.49 64.49 0 0127.07-27.07z"/>
<path class="cls-2" transform="translate(-57.37,-42.6)" d="m159.4 54.08a63.79 63.79 0 0111.47 15.57v-15.34a11.71 11.71 0 00-11.7-11.71h-15.35a64.14 64.14 0 0115.58 11.48z"/>
</g>
<g transform="matrix(-.18709 -.18709 -.18709 .18709 368.12 40.989)">
<circle class="cls-2" transform="rotate(-13.28 -11.378 661.29)" cx="200.25" cy="436.09" r="3.78"/>
<circle class="cls-2" cx="168.07" cy="393.49" r="3.78"/>
<circle class="cls-2" cx="193.27" cy="393.49" r="3.78"/>
<circle class="cls-2" cx="218.46" cy="393.49" r="3.78"/>
<path class="cls-2" transform="translate(-57.37,-42.6)" d="m187.65 455a6.3 6.3 0 10-6.3-6.3 6.3 6.3 0 006.3 6.3zm0-10.08a3.78 3.78 0 11-3.78 3.78 3.78 3.78 0 013.78-3.79z"/>
<path class="cls-2" transform="translate(-57.37,-42.6)" d="m212.84 455a6.3 6.3 0 10-6.29-6.3 6.3 6.3 0 006.29 6.3zm0-10.08a3.78 3.78 0 11-3.77 3.78 3.78 3.78 0 013.77-3.79z"/>
<path class="cls-2" transform="translate(-57.37,-42.6)" d="m238 455a6.3 6.3 0 10-6.3-6.3 6.3 6.3 0 006.3 6.3zm0-10.08a3.78 3.78 0 11-3.78 3.78 3.78 3.78 0 013.78-3.79z"/>
<path class="cls-2" transform="translate(-57.37,-42.6)" d="m263.24 455a6.3 6.3 0 10-6.3-6.3 6.3 6.3 0 006.3 6.3zm0-10.08a3.78 3.78 0 11-3.78 3.78 3.78 3.78 0 013.78-3.79z"/>
<path class="cls-2" transform="translate(-57.37,-42.6)" d="m288.44 442.39a6.3 6.3 0 106.29 6.3 6.3 6.3 0 00-6.29-6.3zm0 10.08a3.78 3.78 0 113.77-3.78 3.78 3.78 0 01-3.77 3.78z"/>
<path class="cls-2" transform="translate(-57.37,-42.6)" d="m200.25 467.59a6.3 6.3 0 10-6.3-6.3 6.3 6.3 0 006.3 6.3zm0-10.08a3.78 3.78 0 11-3.78 3.78 3.78 3.78 0 013.78-3.78z"/>
<path class="cls-2" transform="translate(-57.37,-42.6)" d="m225.44 467.59a6.3 6.3 0 10-6.3-6.3 6.3 6.3 0 006.3 6.3zm0-10.08a3.78 3.78 0 11-3.78 3.78 3.78 3.78 0 013.78-3.78z"/>
<path class="cls-2" transform="translate(-57.37,-42.6)" d="m250.64 467.59a6.3 6.3 0 10-6.3-6.3 6.3 6.3 0 006.3 6.3zm0-10.08a3.78 3.78 0 11-3.78 3.78 3.78 3.78 0 013.78-3.78z"/>
<path class="cls-2" transform="translate(-57.37,-42.6)" d="m275.84 455a6.3 6.3 0 106.3 6.3 6.3 6.3 0 00-6.3-6.3zm0 10.08a3.78 3.78 0 113.78-3.78 3.78 3.78 0 01-3.78 3.77z"/>
<circle class="cls-2" cx="142.87" cy="443.88" r="3.78"/>
<circle class="cls-2" transform="rotate(-13.28 13.839 711.68)" cx="225.44" cy="486.49" r="3.78"/>
<circle class="cls-2" transform="rotate(-13.28 39 711.69)" cx="250.64" cy="486.49" r="3.78"/>
<circle class="cls-2" transform="rotate(-13.28 64.204 711.71)" cx="275.84" cy="486.49" r="3.78"/>
<path class="cls-2" transform="translate(-57.37,-42.6)" d="m187.65 505.38a6.3 6.3 0 10-6.3-6.29 6.3 6.3 0 006.3 6.29zm0-10.07a3.78 3.78 0 11-3.78 3.78 3.78 3.78 0 013.78-3.78z"/>
<path class="cls-2" transform="translate(-57.37,-42.6)" d="m212.84 492.79a6.3 6.3 0 106.3 6.3 6.3 6.3 0 00-6.3-6.3zm0 10.08a3.78 3.78 0 113.78-3.78 3.78 3.78 0 01-3.78 3.78z"/>
<path class="cls-2" transform="translate(-57.37,-42.6)" d="m238 492.79a6.3 6.3 0 106.3 6.3 6.3 6.3 0 00-6.3-6.3zm0 10.08a3.78 3.78 0 113.78-3.78 3.78 3.78 0 01-3.78 3.78z"/>
<path class="cls-2" transform="translate(-57.37,-42.6)" d="m263.24 492.79a6.3 6.3 0 106.3 6.3 6.3 6.3 0 00-6.3-6.3zm0 10.08a3.78 3.78 0 113.78-3.78 3.78 3.78 0 01-3.78 3.78z"/>
<path class="cls-2" transform="translate(-57.37,-42.6)" d="m288.44 492.79a6.3 6.3 0 106.29 6.3 6.3 6.3 0 00-6.29-6.3zm0 10.08a3.78 3.78 0 113.77-3.78 3.78 3.78 0 01-3.77 3.78z"/>
<path class="cls-2" transform="translate(-57.37,-42.6)" d="m200.25 505.38a6.3 6.3 0 106.3 6.3 6.31 6.31 0 00-6.3-6.3zm0 10.08a3.78 3.78 0 113.78-3.78 3.78 3.78 0 01-3.78 3.78z"/>
<path class="cls-2" transform="translate(-57.37,-42.6)" d="m225.44 505.38a6.3 6.3 0 106.3 6.3 6.31 6.31 0 00-6.3-6.3zm0 10.08a3.78 3.78 0 113.78-3.78 3.78 3.78 0 01-3.78 3.78z"/>
<path class="cls-2" transform="translate(-57.37,-42.6)" d="m250.64 505.38a6.3 6.3 0 106.3 6.3 6.31 6.31 0 00-6.3-6.3zm0 10.08a3.78 3.78 0 113.78-3.78 3.78 3.78 0 01-3.78 3.78z"/>
<path class="cls-2" transform="translate(-57.37,-42.6)" d="m275.84 505.38a6.3 6.3 0 106.3 6.3 6.31 6.31 0 00-6.3-6.3zm0 10.08a3.78 3.78 0 113.78-3.78 3.78 3.78 0 01-3.78 3.78z"/>
<circle class="cls-2" cx="130.27" cy="431.28" r="6.3"/>
<circle class="cls-2" cx="155.47" cy="431.28" r="6.3"/>
<circle class="cls-2" transform="rotate(-13.28 26.407 699.08)" cx="238.04" cy="473.89" r="6.3"/>
<circle class="cls-2" transform="rotate(-13.28 51.611 699.1)" cx="263.24" cy="473.89" r="6.3"/>
<circle class="cls-2" cx="231.06" cy="431.28" r="6.3"/>
<path class="cls-2" transform="translate(-57.37,-42.6)" d="m187.65 429.79a6.29 6.29 0 002.26-12.17 11.72 11.72 0 00-8.13 8.14 6.29 6.29 0 005.87 4.03z"/>
<circle class="cls-2" cx="155.47" cy="380.89" r="6.3"/>
<circle class="cls-2" transform="rotate(-13.28 26.398 648.67)" cx="238.04" cy="423.5" r="6.3"/>
<circle class="cls-2" transform="rotate(-13.28 51.602 648.69)" cx="263.24" cy="423.5" r="6.3"/>
<path class="cls-2" transform="translate(-57.37,-42.6)" d="m282.14 423.5a6.3 6.3 0 0012.17 2.26 11.75 11.75 0 00-8.14-8.14 6.3 6.3 0 00-4.03 5.88z"/>
<path class="cls-2" transform="translate(-57.37,-42.6)" d="m194 524.28a6.29 6.29 0 00-12.22-2.28 11.69 11.69 0 008.13 8.13 6.29 6.29 0 004.09-5.85z"/>
<circle class="cls-2" cx="155.47" cy="481.68" r="6.3"/>
<circle class="cls-2" transform="rotate(-13.28 26.415 749.49)" cx="238.04" cy="524.28" r="6.3"/>
<circle class="cls-2" transform="rotate(-13.28 51.619 749.51)" cx="263.24" cy="524.28" r="6.3"/>
<path class="cls-2" transform="translate(-57.37,-42.6)" d="m288.44 518a6.3 6.3 0 00-2.27 12.17 11.72 11.72 0 008.14-8.13 6.3 6.3 0 00-5.87-4.04z"/>
</g>
</g>
<g transform="matrix(.18709 -.18709 .18709 .18709 -257.97 64.589)" stroke-width="1.0016">
<path class="cls-3" transform="translate(-57.37,-42.6)" d="m309.11 1085.3v-1.8a2.65 2.65 0 00-2.65-2.7h-.89v7.1h.89a2.65 2.65 0 002.65-2.6z"/>
<path class="cls-3" transform="translate(-57.37,-42.6)" d="m321.81 1040.3a2.66 2.66 0 002.66 2.7 2.66 2.66 0 002.66-2.7z"/>
<path class="cls-3" transform="translate(-57.37,-42.6)" d="m356.59 1153.7h11.34a5.67 5.67 0 00-11.34 0z"/>
<path class="cls-3" transform="translate(-57.37,-42.6)" d="m305.57 1127.9a5.7 5.7 0 100-11.4z"/>
<path class="cls-3" transform="translate(-57.37,-42.6)" d="m311.24 1071.8a5.67 5.67 0 00-5.67-5.7v11.4a5.67 5.67 0 005.67-5.7z"/>
<path class="cls-3" transform="translate(-57.37,-42.6)" d="m309.11 1135.7v-1.8a2.64 2.64 0 00-2.65-2.7h-.89v7.1h.89a2.65 2.65 0 002.65-2.6z"/>
<path class="cls-3" transform="translate(-57.37,-42.6)" d="m374.86 1046a5.67 5.67 0 005.67-5.7h-11.34a5.67 5.67 0 005.67 5.7z"/>
<path class="cls-3" transform="translate(-57.37,-42.6)" d="m413.29 1084.4a5.66 5.66 0 005.67 5.7v-11.4a5.67 5.67 0 00-5.67 5.7z"/>
<path class="cls-3" transform="translate(-57.37,-42.6)" d="m415.77 1133.5 1.33 1.3-1.33 1.3a1.42 1.42 0 102 2l1.23-1.1v-4.3l-1.17-1.2a1.42 1.42 0 10-2 2z"/>
<path class="cls-3" transform="translate(-57.37,-42.6)" d="m384.12 1150.3a1.43 1.43 0 000 2l1.33 1.4h4l1.32-1.4a1.42 1.42 0 00-2-2l-1.33 1.4-1.33-1.4a1.41 1.41 0 00-1.99 0z"/>
<rect class="cls-3" x="277.04" y="1089.5" width="5.31" height="5.31" rx="2.65"/>
<rect class="cls-3" x="263.55" y="1063.4" width="7.09" height="7.09" rx="2.65"/>
<rect class="cls-3" x="263.55" y="1038.2" width="7.09" height="7.09" rx="2.65"/>
<circle class="cls-3" cx="260.8" cy="1098.5" r="2.66"/>
<rect class="cls-3" x="274.97" y="1037.1" width="9.45" height="9.45" rx="2.65"/>
<rect class="cls-3" x="264.44" y="1026.5" width="5.31" height="5.31" rx="2.65"/>
<rect class="cls-3" x="274.97" y="1024.5" width="9.45" height="9.45" rx="2.65"/>
<rect class="cls-3" x="276.15" y="1013" width="7.09" height="7.09" rx="2.65"/>
<rect class="cls-3" x="301.35" y="1088.6" width="7.09" height="7.09" rx="2.65"/>
<path class="cls-3" transform="translate(-57.37,-42.6)" d="m357.54 1120.1v4.2a2.66 2.66 0 002.65 2.6h29.34a2.66 2.66 0 002.66-2.6v-4.2a2.65 2.65 0 00-2.66-2.6h-29.34a2.65 2.65 0 00-2.65 2.6z"/>
<rect class="cls-3" x="287.19" y="1049.3" width="10.2" height="10.2" rx="5.1"/>
<rect class="cls-3" x="287.19" y="1036.7" width="10.2" height="10.2" rx="5.1"/>
<path class="cls-3" transform="translate(-57.37,-42.6)" d="m380 1109.6a5.1 5.1 0 10-5.1 5.1 5.1 5.1 0 005.1-5.1z"/>
<path class="cls-3" transform="translate(-57.37,-42.6)" d="m344.94 1050.8v23a2.66 2.66 0 002.66 2.7h29.33a2.66 2.66 0 002.66-2.7v-4.1a2.66 2.66 0 00-2.66-2.7h-19.88a2.66 2.66 0 01-2.66-2.6v-13.6a2.65 2.65 0 00-2.65-2.7h-4.14a2.65 2.65 0 00-2.66 2.7z"/>
<rect class="cls-3" x="325.84" y="1050.1" width="8.5" height="8.5" rx="2.39"/>
<circle class="cls-3" cx="348.99" cy="1067" r="5.67"/>
<rect class="cls-3" x="325.84" y="1037.5" width="8.5" height="8.5" rx="2.39"/>
<rect class="cls-3" x="313.95" y="1013" width="7.09" height="7.09" rx="2.65"/>
<rect class="cls-3" x="327.43" y="1013.9" width="5.31" height="5.31" rx="2.65"/>
<rect class="cls-3" x="340.03" y="1089.5" width="5.31" height="5.31" rx="2.65"/>
<rect class="cls-3" x="339.14" y="1025.7" width="7.09" height="7.09" rx="2.65"/>
<path class="cls-3" transform="translate(-57.37,-42.6)" d="m384.12 1068.5a1.43 1.43 0 000 2l1.33 1.3-1.33 1.3a1.42 1.42 0 102 2l1.33-1.3 1.33 1.3a1.42 1.42 0 102-2l-1.32-1.3 1.32-1.3a1.42 1.42 0 00-2-2l-1.33 1.3-1.33-1.3a1.41 1.41 0 00-2 0z"/>
<path class="cls-3" transform="translate(-57.37,-42.6)" d="m384.12 1106.2a1.44 1.44 0 000 2l1.33 1.4-1.33 1.3a1.43 1.43 0 000 2 1.41 1.41 0 002 0l1.33-1.3 1.33 1.3a1.42 1.42 0 102-2l-1.32-1.3 1.32-1.4a1.42 1.42 0 00-2-2l-1.33 1.4-1.33-1.4a1.43 1.43 0 00-2 0z"/>
<path class="cls-3" transform="translate(-57.37,-42.6)" d="m315.21 1062.5a1.43 1.43 0 000-2l-1.33-1.3 1.33-1.3a1.43 1.43 0 000-2 1.41 1.41 0 00-2 0l-1.33 1.3-1.33-1.3a1.41 1.41 0 00-2 0 1.43 1.43 0 000 2l1.33 1.3-1.33 1.3a1.42 1.42 0 002 2l1.33-1.3 1.33 1.3a1.43 1.43 0 002 0z"/>
<path class="cls-3" transform="translate(-57.37,-42.6)" d="m353 1112.9a1.43 1.43 0 000-2l-1.33-1.3 1.33-1.3a1.43 1.43 0 00-2-2l-1.32 1.3-1.33-1.3a1.42 1.42 0 00-2 2l1.32 1.3-1.32 1.3a1.42 1.42 0 102 2l1.33-1.3 1.32 1.3a1.42 1.42 0 002 0z"/>
<path class="cls-3" transform="translate(-57.37,-42.6)" d="m327.81 1125.5a1.43 1.43 0 000-2l-1.33-1.3 1.33-1.3a1.42 1.42 0 00-2-2l-1.33 1.3-1.33-1.3a1.43 1.43 0 00-2 0 1.41 1.41 0 000 2l1.32 1.3-1.32 1.3a1.42 1.42 0 102 2l1.33-1.3 1.33 1.3a1.41 1.41 0 002 0z"/>
</g>
<rect class="cls-2" transform="matrix(-.70711 -.70711 -.70711 .70711 0 0)" x="-322.77" y="-99.271" width="63.172" height="63.172" rx="5.4504" stroke-width=".265"/>
<rect class="cls-2" transform="rotate(-45)" x="-129.44" y="160.34" width="63.172" height="63.172" rx="5.4504" stroke-width=".265"/>
<g transform="matrix(.18709 -.18709 .18709 .18709 -187.41 180.75)" stroke-width="1.0016">
<path class="cls-2" transform="translate(-57.37,-42.6)" d="m699 966.73a3.77 3.77 0 103.77-3.78 3.77 3.77 0 00-3.77 3.78"/>
<path class="cls-2" transform="translate(-57.37,-42.6)" d="m711.55 979.31a3.77 3.77 0 103.77-3.78 3.77 3.77 0 00-3.77 3.78"/>
<path class="cls-2" transform="translate(-57.37,-42.6)" d="m727.9 963a3.78 3.78 0 103.77 3.78 3.77 3.77 0 00-3.77-3.78"/>
<path class="cls-2" transform="translate(-57.37,-42.6)" d="m727.9 950.37a3.78 3.78 0 103.77 3.77 3.77 3.77 0 00-3.77-3.77"/>
<path class="cls-2" transform="translate(-57.37,-42.6)" d="m740.48 1020.8a3.78 3.78 0 10-3.77-3.78 3.78 3.78 0 003.77 3.78"/>
<path class="cls-2" transform="translate(-57.37,-42.6)" d="m761.87 1029.6h7.55a3.78 3.78 0 00-7.55 0"/>
<path class="cls-2" transform="translate(-57.37,-42.6)" d="m740.48 937.79a3.78 3.78 0 103.78 3.78 3.77 3.77 0 00-3.78-3.78"/>
<path class="cls-2" transform="translate(-57.37,-42.6)" d="m753.07 920.17a3.77 3.77 0 003.77-3.77h-7.55a3.77 3.77 0 003.78 3.77"/>
<path class="cls-2" transform="translate(-57.37,-42.6)" d="m740.48 925.21a3.78 3.78 0 103.78 3.77 3.77 3.77 0 00-3.78-3.77"/>
<path class="cls-2" transform="translate(-57.37,-42.6)" d="m677.58 979.93a49.76 49.76 0 0149.7 49.7h1.24a51 51 0 00-50.95-51z"/>
<path class="cls-2" transform="translate(-57.37,-42.6)" d="m677.57 986.22a43.46 43.46 0 0143.43 43.41h1.23a44.7 44.7 0 00-44.65-44.63z"/>
<path class="cls-2" transform="translate(-57.37,-42.6)" d="m677.58 992.51a37.17 37.17 0 0137.07 37.12h1.24a38.4 38.4 0 00-38.32-38.36z"/>
<path class="cls-2" transform="translate(-57.37,-42.6)" d="m677.58 998.8a30.86 30.86 0 0130.77 30.83h1.24a32.08 32.08 0 00-32-32.06z"/>
<path class="cls-2" transform="translate(-57.37,-42.6)" d="m677.58 1005.1a24.55 24.55 0 0124.52 24.52h1.24a25.79 25.79 0 00-25.76-25.76z"/>
<path class="cls-2" transform="translate(-57.37,-42.6)" d="m677.57 1011.4a18.24 18.24 0 0118.22 18.22h1.21a19.47 19.47 0 00-19.45-19.45z"/>
<path class="cls-2" transform="translate(-57.37,-42.6)" d="m677.58 1017.7a11.94 11.94 0 0111.92 11.92h1.24a13.18 13.18 0 00-13.16-13.16z"/>
<path class="cls-2" transform="translate(-57.37,-42.6)" d="m789.79 1022.7a49.71 49.71 0 010-99.39 12.75 12.75 0 00-.63-1.22 50.94 50.94 0 000 101.83 10.07 10.07 0 00.63-1.22"/>
<path class="cls-2" transform="translate(-57.37,-42.6)" d="m790.81 928.37a44.65 44.65 0 000 89.3v-1.24a43.42 43.42 0 010-86.84z"/>
<path class="cls-2" transform="translate(-57.37,-42.6)" d="m790.81 934.67a38.36 38.36 0 000 76.72v-1.24a37.12 37.12 0 010-74.24z"/>
<path class="cls-2" transform="translate(-57.37,-42.6)" d="m790.81 941a32.06 32.06 0 100 64.12v-1.24a30.83 30.83 0 010-61.65z"/>
<path class="cls-2" transform="translate(-57.37,-42.6)" d="m790.81 947.25a25.76 25.76 0 000 51.52v-1.23a24.53 24.53 0 010-49.06z"/>
<path class="cls-2" transform="translate(-57.37,-42.6)" d="m790.81 953.56a19.45 19.45 0 100 38.9v-1.24a18.22 18.22 0 010-36.43z"/>
<path class="cls-2" transform="translate(-57.37,-42.6)" d="m790.81 961.08v-1.23a13.16 13.16 0 000 26.32v-1.24a11.93 11.93 0 110-23.85"/>
<path class="cls-2" transform="translate(-57.37,-42.6)" d="m677.58 967.35a51 51 0 0051-50.94h-1.24a49.77 49.77 0 01-49.71 49.71z"/>
<path class="cls-2" transform="translate(-57.37,-42.6)" d="m677.58 961.06a44.7 44.7 0 0044.65-44.66h-1.23a43.47 43.47 0 01-43.42 43.42z"/>
<path class="cls-2" transform="translate(-57.37,-42.6)" d="m677.58 954.76a38.4 38.4 0 0038.36-38.35h-1.24a37.16 37.16 0 01-37.12 37.12z"/>
<path class="cls-2" transform="translate(-57.37,-42.6)" d="m677.58 948.46a32.09 32.09 0 0032.06-32.06h-1.24a30.86 30.86 0 01-30.82 30.83z"/>
<path class="cls-2" transform="translate(-57.37,-42.6)" d="m677.58 942.15a25.79 25.79 0 0025.77-25.75h-1.24a24.56 24.56 0 01-24.53 24.52z"/>
<path class="cls-2" transform="translate(-57.37,-42.6)" d="m677.58 935.84a19.46 19.46 0 0019.45-19.44h-1.23a18.25 18.25 0 01-18.22 18.21z"/>
<path class="cls-2" transform="translate(-57.37,-42.6)" d="m677.57 929.55a13.18 13.18 0 0013.17-13.15h-1.24a11.94 11.94 0 01-11.93 11.92z"/>
</g>
<rect class="cls-3" transform="matrix(-.70711 -.70711 -.70711 .70711 0 0)" x="-256.48" y="-32.987" width="29.961" height="29.961" rx="5.3552" stroke-width=".265"/>
<rect class="cls-2" transform="matrix(.70711 -.70711 -.70711 -.70711 0 0)" x="-96.33" y="-355.84" width="63.172" height="63.172" rx="5.4504" stroke-width=".265"/>
<g transform="matrix(-.18709 -.18709 .18709 -.18709 113.34 389.43)" stroke-width="1.0016">
<path class="cls-1" transform="translate(-57.37,-42.6)" d="m250.07 170.13h1.78a2.65 2.65 0 002.65-2.65v-.89h-7.09v.89a2.66 2.66 0 002.66 2.65z"/>
<path class="cls-1" transform="translate(-57.37,-42.6)" d="m295.05 182.83a2.66 2.66 0 00-2.66 2.65 2.66 2.66 0 002.66 2.65v-5.31z"/>
<path class="cls-1" transform="translate(-57.37,-42.6)" d="m181.67 217.61v11.39a5.67 5.67 0 100-11.34z"/>
<path class="cls-1" transform="translate(-57.37,-42.6)" d="m207.49 166.59a5.67 5.67 0 1011.34 0z"/>
<path class="cls-1" transform="translate(-57.37,-42.6)" d="m263.56 172.26a5.67 5.67 0 005.67-5.67h-11.34a5.67 5.67 0 005.67 5.67z"/>
<path class="cls-1" transform="translate(-57.37,-42.6)" d="m199.67 170.13h1.78a2.66 2.66 0 002.66-2.65v-.89h-7.11v.89a2.65 2.65 0 002.67 2.65z"/>
<path class="cls-1" transform="translate(-57.37,-42.6)" d="m289.38 235.88a5.67 5.67 0 005.67 5.67v-11.34a5.67 5.67 0 00-5.67 5.67z"/>
<path class="cls-1" transform="translate(-57.37,-42.6)" d="m251 274.3a5.67 5.67 0 00-5.67 5.67h11.34a5.67 5.67 0 00-5.67-5.67z"/>
<path class="cls-1" transform="translate(-57.37,-42.6)" d="m201.89 276.79-1.33 1.32-1.32-1.32a1.42 1.42 0 00-2 2l1.17 1.17h4.34l1.17-1.17a1.42 1.42 0 00-2-2z"/>
<path class="cls-1" transform="translate(-57.37,-42.6)" d="m185 245.14a1.42 1.42 0 00-2 0l-1.32 1.32v4l1.32 1.33a1.43 1.43 0 002-2l-1.33-1.32 1.33-1.33a1.43 1.43 0 000-2z"/>
<rect class="cls-1" x="140.53" y="152.82" width="5.31" height="5.31" rx="2.65"/>
<rect class="cls-1" x="164.84" y="139.34" width="7.09" height="7.09" rx="2.65"/>
<rect class="cls-1" x="190.04" y="139.34" width="7.09" height="7.09" rx="2.65"/>
<circle class="cls-1" cx="136.89" cy="136.58" r="2.66"/>
<rect class="cls-1" x="188.86" y="150.75" width="9.45" height="9.45" rx="2.65"/>
<rect class="cls-1" x="203.53" y="140.22" width="5.31" height="5.31" rx="2.65"/>
<rect class="cls-1" x="201.46" y="150.75" width="9.45" height="9.45" rx="2.65"/>
<rect class="cls-1" x="215.24" y="151.94" width="7.09" height="7.09" rx="2.65"/>
<rect class="cls-1" x="139.65" y="177.13" width="7.09" height="7.09" rx="2.65"/>
<path class="cls-1" transform="translate(-57.37,-42.6)" d="m215.23 218.56h-4.14a2.65 2.65 0 00-2.65 2.65v29.34a2.65 2.65 0 002.65 2.65h4.14a2.66 2.66 0 002.66-2.65v-29.34a2.65 2.65 0 00-2.66-2.65z"/>
<rect class="cls-1" x="175.88" y="162.97" width="10.2" height="10.2" rx="5.1"/>
<rect class="cls-1" x="188.48" y="162.97" width="10.2" height="10.2" rx="5.1"/>
<path class="cls-1" transform="translate(-57.37,-42.6)" d="m225.76 241a5.1 5.1 0 10-5.1-5.1 5.1 5.1 0 005.1 5.1z"/>
<path class="cls-1" transform="translate(-57.37,-42.6)" d="m284.52 206h-23a2.66 2.66 0 00-2.66 2.65v29.35a2.66 2.66 0 002.66 2.65h4.14a2.65 2.65 0 002.65-2.65v-19.94a2.65 2.65 0 012.66-2.65h13.58a2.66 2.66 0 002.66-2.66v-4.14a2.66 2.66 0 00-2.69-2.61z"/>
<rect class="cls-1" x="176.73" y="201.62" width="8.5" height="8.5" rx="2.39"/>
<circle class="cls-1" cx="168.39" cy="224.77" r="5.67"/>
<rect class="cls-1" x="189.33" y="201.62" width="8.5" height="8.5" rx="2.39"/>
<rect class="cls-1" x="215.24" y="189.73" width="7.09" height="7.09" rx="2.65"/>
<rect class="cls-1" x="216.12" y="203.21" width="5.31" height="5.31" rx="2.65"/>
<rect class="cls-1" x="140.53" y="215.81" width="5.31" height="5.31" rx="2.65"/>
<rect class="cls-1" x="202.64" y="214.93" width="7.09" height="7.09" rx="2.65"/>
<path class="cls-1" transform="translate(-57.37,-42.6)" d="m266.9 245.14a1.42 1.42 0 00-2 0l-1.32 1.32-1.33-1.32a1.42 1.42 0 00-2 2l1.33 1.33-1.33 1.32a1.43 1.43 0 002 2l1.33-1.33 1.32 1.33a1.43 1.43 0 002-2l-1.33-1.32 1.33-1.33a1.43 1.43 0 000-2z"/>
<path class="cls-1" transform="translate(-57.37,-42.6)" d="m229.1 245.14a1.41 1.41 0 00-2 0l-1.33 1.32-1.33-1.32a1.41 1.41 0 00-2 0 1.43 1.43 0 000 2l1.33 1.33-1.33 1.32a1.42 1.42 0 002 2l1.33-1.33 1.33 1.33a1.42 1.42 0 002-2l-1.33-1.32 1.33-1.33a1.43 1.43 0 000-2z"/>
<path class="cls-1" transform="translate(-57.37,-42.6)" d="m272.81 176.23a1.44 1.44 0 002 0l1.32-1.33 1.33 1.33a1.42 1.42 0 002-2l-1.32-1.32 1.32-1.33a1.42 1.42 0 00-2-2l-1.33 1.32-1.32-1.32a1.42 1.42 0 00-2 2l1.33 1.33-1.33 1.32a1.44 1.44 0 000 2z"/>
<path class="cls-1" transform="translate(-57.37,-42.6)" d="m222.42 214a1.41 1.41 0 002 0l1.33-1.32 1.33 1.32a1.41 1.41 0 002 0 1.43 1.43 0 000-2l-1.33-1.33 1.33-1.33a1.42 1.42 0 00-2-2l-1.33 1.33-1.33-1.33a1.42 1.42 0 00-2 2l1.33 1.33-1.33 1.33a1.43 1.43 0 000 2z"/>
<path class="cls-1" transform="translate(-57.37,-42.6)" d="m209.82 188.83a1.44 1.44 0 002 0l1.32-1.33 1.33 1.33a1.42 1.42 0 002-2l-1.32-1.33 1.32-1.32a1.42 1.42 0 10-2-2l-1.33 1.33-1.32-1.33a1.43 1.43 0 10-2 2l1.33 1.32-1.33 1.33a1.44 1.44 0 000 2z"/>
</g>
<g transform="matrix(.18709 -.18709 -.18709 -.18709 114.38 295.4)" stroke-width="1.0016">
<path class="cls-4" transform="translate(-57.37,-42.6)" d="m727.9 385.21a3.77 3.77 0 10-3.77-3.77 3.77 3.77 0 003.77 3.77"/>
<path class="cls-4" transform="translate(-57.37,-42.6)" d="m740.48 372.63a3.77 3.77 0 10-3.77-3.77 3.77 3.77 0 003.77 3.77"/>
<path class="cls-4" transform="translate(-57.37,-42.6)" d="m724.13 356.28a3.77 3.77 0 103.77-3.77 3.77 3.77 0 00-3.77 3.77"/>
<path class="cls-4" transform="translate(-57.37,-42.6)" d="m711.54 356.28a3.78 3.78 0 103.78-3.77 3.77 3.77 0 00-3.78 3.77"/>
<path class="cls-4" transform="translate(-57.37,-42.6)" d="m782 343.7a3.78 3.78 0 10-3.78 3.77 3.78 3.78 0 003.78-3.77"/>
<path class="cls-4" transform="translate(-57.37,-42.6)" d="m790.8 322.31v-7.55a3.78 3.78 0 000 7.55"/>
<path class="cls-4" transform="translate(-57.37,-42.6)" d="m699 343.7a3.78 3.78 0 103.78-3.78 3.77 3.77 0 00-3.78 3.78"/>
<path class="cls-4" transform="translate(-57.37,-42.6)" d="m681.34 331.11a3.76 3.76 0 00-3.77-3.77v7.55a3.77 3.77 0 003.77-3.78"/>
<path class="cls-4" transform="translate(-57.37,-42.6)" d="m686.38 343.7a3.78 3.78 0 103.77-3.78 3.77 3.77 0 00-3.77 3.78"/>
<path class="cls-4" transform="translate(-57.37,-42.6)" d="m741.1 406.6a49.76 49.76 0 0149.7-49.7v-1.24a51 51 0 00-50.95 50.95z"/>
<path class="cls-4" transform="translate(-57.37,-42.6)" d="m747.39 406.61a43.47 43.47 0 0143.41-43.38v-1.23a44.7 44.7 0 00-44.65 44.6z"/>
<path class="cls-4" transform="translate(-57.37,-42.6)" d="m753.68 406.6a37.17 37.17 0 0137.12-37.07v-1.24a38.41 38.41 0 00-38.36 38.32z"/>
<path class="cls-4" transform="translate(-57.37,-42.6)" d="m760 406.6a30.86 30.86 0 0130.83-30.77v-1.23a32.1 32.1 0 00-32.06 32z"/>
<path class="cls-4" transform="translate(-57.37,-42.6)" d="m766.27 406.6a24.55 24.55 0 0124.52-24.52v-1.24a25.79 25.79 0 00-25.79 25.76z"/>
<path class="cls-4" transform="translate(-57.37,-42.6)" d="m772.58 406.61a18.23 18.23 0 0118.21-18.22v-1.24a19.48 19.48 0 00-19.45 19.45z"/>
<path class="cls-4" transform="translate(-57.37,-42.6)" d="m778.87 406.6a11.94 11.94 0 0111.92-11.92v-1.24a13.18 13.18 0 00-13.16 13.16z"/>
<path class="cls-4" transform="translate(-57.37,-42.6)" d="m783.89 294.39a49.71 49.71 0 01-99.39 0 12.75 12.75 0 00-1.22.63 50.94 50.94 0 00101.83 0 9.38 9.38 0 00-1.22-.63"/>
<path class="cls-4" transform="translate(-57.37,-42.6)" d="m689.54 293.37v.05a44.66 44.66 0 0089.31 0v-.05h-1.24v.05a43.42 43.42 0 11-86.83 0v-.05z"/>
<path class="cls-4" transform="translate(-57.37,-42.6)" d="m695.84 293.37v.05a38.36 38.36 0 1076.71 0v-.05h-1.23v.05a37.13 37.13 0 01-74.25 0v-.05z"/>
<path class="cls-4" transform="translate(-57.37,-42.6)" d="m702.13 293.37v.05a32.06 32.06 0 1064.12 0v-.05h-1.25a.09.09 0 000 .05 30.83 30.83 0 01-61.66 0v-.05z"/>
<path class="cls-4" transform="translate(-57.37,-42.6)" d="m708.42 293.37a25.76 25.76 0 1051.52 0h-1.23a24.53 24.53 0 01-49.06 0z"/>
<path class="cls-4" transform="translate(-57.37,-42.6)" d="m714.73 293.37a19.45 19.45 0 0038.9 0h-1.23a18.22 18.22 0 11-36.43 0z"/>
<path class="cls-4" transform="translate(-57.37,-42.6)" d="m722.25 293.37h-1.25a13.16 13.16 0 0026.32 0h-1.23a11.93 11.93 0 01-23.86 0"/>
<path class="cls-4" transform="translate(-57.37,-42.6)" d="m728.52 406.6a51 51 0 00-50.94-50.95v1.24a49.75 49.75 0 0149.7 49.71z"/>
<path class="cls-4" transform="translate(-57.37,-42.6)" d="m722.23 406.6a44.7 44.7 0 00-44.65-44.6v1.24a43.46 43.46 0 0143.42 43.37z"/>
<path class="cls-4" transform="translate(-57.37,-42.6)" d="m715.94 406.6a38.4 38.4 0 00-38.36-38.35v1.23a37.17 37.17 0 0137.12 37.12z"/>
<path class="cls-4" transform="translate(-57.37,-42.6)" d="m709.63 406.6a32.1 32.1 0 00-32.06-32.06v1.24a30.86 30.86 0 0130.83 30.82z"/>
<path class="cls-4" transform="translate(-57.37,-42.6)" d="m703.32 406.6a25.78 25.78 0 00-25.75-25.76v1.16a24.56 24.56 0 0124.52 24.53z"/>
<path class="cls-4" transform="translate(-57.37,-42.6)" d="m697 406.6a19.47 19.47 0 00-19.45-19.45v1.23a18.25 18.25 0 0118.21 18.22z"/>
<path class="cls-4" transform="translate(-57.37,-42.6)" d="m690.72 406.61v-.05a13.16 13.16 0 00-13.15-13.16v1.23a12 12 0 0111.92 11.93z"/>
</g>
<rect class="cls-4" transform="matrix(.70711 -.70711 -.70711 -.70711 0 0)" x="135.32" y="-223.41" width="29.961" height="29.961" rx="5.3552" stroke-width=".265"/>
<rect class="cls-3" transform="matrix(.70711 -.70711 -.70711 -.70711 0 0)" x="-63.12" y="-190.34" width="29.961" height="29.961" rx="5.3552" stroke-width=".265"/>
<g transform="matrix(.18709 -.18709 -.18709 -.18709 300.56 435.92)" stroke-width="1.0016">
<path transform="translate(-57.37,-42.6)" d="m412.44 1004.5h.22a6.29 6.29 0 000-12.58h-25.2a6.3 6.3 0 100 12.6h25z"/>
<circle transform="rotate(-9.22 69.252 1332.4)" cx="362.26" cy="998.22" r="6.3"/>
<path transform="translate(-57.37,-42.6)" d="m337.07 1004.5a6.3 6.3 0 000-12.6h-25.2a6.3 6.3 0 000 12.6z"/>
<path transform="translate(-57.37,-42.6)" d="m412.66 979.32a6.3 6.3 0 000-12.6h-50.4a6.3 6.3 0 000 12.6z"/>
<path transform="translate(-57.37,-42.6)" d="m341.79 973a4.73 4.73 0 10-4.72 4.73 4.72 4.72 0 004.72-4.73z"/>
<path transform="translate(-57.37,-42.6)" d="m315.41 973a3.54 3.54 0 10-3.54 3.55 3.54 3.54 0 003.54-3.55z"/>
<path transform="translate(-57.37,-42.6)" d="m315.41 947.83a3.54 3.54 0 10-3.54 3.54 3.54 3.54 0 003.54-3.54z"/>
<path transform="translate(-57.37,-42.6)" d="m316.59 1023.4a4.72 4.72 0 10-4.72 4.72 4.72 4.72 0 004.72-4.72z"/>
<circle transform="rotate(-67.5 352.09 969.46)" cx="412.66" cy="947.83" r="6.3"/>
<circle transform="rotate(-9.22 94.473 1282)" cx="387.46" cy="947.83" r="4.72"/>
<circle cx="304.89" cy="905.22" r="3.54"/>
<path transform="translate(-57.37,-42.6)" d="m340.61 947.83a3.55 3.55 0 10-3.54 3.54 3.55 3.55 0 003.54-3.54z"/>
<circle transform="rotate(-9.22 69.292 1256.8)" cx="362.26" cy="922.63" r="6.3"/>
<circle cx="273.39" cy="980.81" r="6.3"/>
<path transform="translate(-57.37,-42.6)" d="m412.66 928.93a6.3 6.3 0 000-12.6h-25.2a6.3 6.3 0 100 12.6z"/>
<path transform="translate(-57.37,-42.6)" d="m341.79 922.63a4.73 4.73 0 10-4.73 4.72 4.73 4.73 0 004.73-4.72z"/>
<path transform="translate(-57.37,-42.6)" d="m315.4 922.63a3.54 3.54 0 10-3.54 3.54 3.53 3.53 0 003.54-3.54z"/>
<path transform="translate(-57.37,-42.6)" d="m412.66 1029.7a6.29 6.29 0 000-12.57h-63a6.3 6.3 0 100 12.6h63z"/>
</g>
<g stroke-width=".265">
<rect class="cls-1" transform="matrix(-.70711 -.70711 -.70711 .70711 0 0)" x="-223.41" y="-99.133" width="29.961" height="29.961" rx="5.3552"/>
<rect class="cls-3" transform="rotate(-45)" x="-30.088" y="358.77" width="29.961" height="29.961" rx="5.3552"/>
<rect class="cls-3" transform="rotate(225)" x="-289.52" y="-162.38" width="29.961" height="29.961" rx="5.3552"/>
</g>
<g stroke-width="1.0016">
<g transform="matrix(.18709 -.18709 -.18709 -.18709 276.74 365.55)">
<g stroke-width="1.0016">
<circle class="cls-1" cx="253.86" cy="704.87" r="6.36"/>
<circle class="cls-1" transform="rotate(-13.28 99.645 947.26)" cx="311.23" cy="722.02" r="6.36"/>
<circle class="cls-1" transform="rotate(-13.28 99.644 921.83)" cx="311.23" cy="696.58" r="6.36"/>
<circle class="cls-1" transform="rotate(-13.28 112.35 985.44)" cx="323.96" cy="760.2" r="6.36"/>
<circle class="cls-1" cx="266.58" cy="692.14" r="6.36"/>
<circle class="cls-1" cx="266.58" cy="666.7" r="6.36"/>
<circle class="cls-1" cx="266.58" cy="641.25" r="6.36"/>
<circle class="cls-1" transform="rotate(-13.28 125.1 998.19)" cx="336.68" cy="772.92" r="6.36"/>
<circle class="cls-1" transform="rotate(-13.28 125.06 972.72)" cx="336.68" cy="747.47" r="6.36"/>
<circle class="cls-1" cx="279.31" cy="679.42" r="6.36"/>
<circle class="cls-1" cx="279.31" cy="653.97" r="6.36"/>
<circle class="cls-1" cx="279.31" cy="628.52" r="6.36"/>
<circle class="cls-1" cx="292.03" cy="717.59" r="6.36"/>
<circle class="cls-1" transform="rotate(-13.28 137.82 960.02)" cx="349.41" cy="734.75" r="6.36"/>
<circle class="cls-1" transform="rotate(-13.28 137.82 934.55)" cx="349.41" cy="709.3" r="6.36"/>
<circle class="cls-1" transform="rotate(-13.28 137.83 909.08)" cx="349.41" cy="683.85" r="6.36"/>
<circle class="cls-1" cx="304.76" cy="730.31" r="6.36"/>
<circle class="cls-1" cx="304.76" cy="704.87" r="6.36"/>
<circle class="cls-1" transform="rotate(-13.28 150.53 947.26)" cx="362.13" cy="722.02" r="6.36"/>
<circle class="cls-1" transform="rotate(-13.28 150.53 921.84)" cx="362.13" cy="696.58" r="6.36"/>
<circle class="cls-1" cx="304.76" cy="628.52" r="6.36"/>
<circle class="cls-1" cx="317.48" cy="717.59" r="6.36"/>
<circle class="cls-1" transform="rotate(-13.28 163.24 960.02)" cx="374.85" cy="734.75" r="6.36"/>
</g>
<circle class="cls-1" transform="matrix(.97 -.23 .23 .97 -210.31 62.49)" cx="374.85" cy="709.3" r="6.36" stroke-width="1.0047"/>
<g stroke-width="1.0016">
<circle class="cls-1" transform="rotate(-13.28 163.25 909.08)" cx="374.85" cy="683.85" r="6.36"/>
<circle class="cls-1" cx="330.2" cy="730.31" r="6.36"/>
<circle class="cls-1" cx="330.2" cy="704.87" r="6.36"/>
<circle class="cls-1" transform="rotate(-13.28 176 947.27)" cx="387.58" cy="722.02" r="6.36"/>
<circle class="cls-1" transform="rotate(-13.28 176 921.84)" cx="387.58" cy="696.58" r="6.36"/>
<circle class="cls-1" cx="330.2" cy="628.52" r="6.36"/>
<circle class="cls-1" transform="rotate(-9.22 107.29 1094.4)" cx="400.3" cy="760.2" r="6.36"/>
<circle class="cls-1" transform="rotate(-67.5 339.73 756.38)" cx="400.3" cy="734.75" r="6.36"/>
<circle class="cls-1" transform="rotate(-67.5 339.73 730.93)" cx="400.3" cy="709.3" r="6.36"/>
<circle class="cls-1" transform="rotate(-67.5 339.73 705.48)" cx="400.3" cy="683.85" r="6.36"/>
<circle class="cls-1" transform="rotate(-13.28 201.24 998.18)" cx="412.81" cy="772.92" r="6.36"/>
<circle class="cls-1" cx="355.65" cy="704.87" r="6.36"/>
<circle class="cls-1" transform="rotate(-13.28 201.42 947.27)" cx="413.02" cy="722.02" r="6.36"/>
<circle class="cls-1" transform="rotate(-13.28 201.43 921.8)" cx="413.02" cy="696.58" r="6.36"/>
<circle class="cls-1" transform="rotate(-13.28 99.649 896.37)" cx="311.23" cy="671.13" r="6.36"/>
<circle class="cls-1" transform="rotate(-13.28 201.43 896.38)" cx="413.02" cy="671.13" r="6.36"/>
<circle class="cls-1" transform="rotate(-13.28 99.637 998.19)" cx="311.23" cy="772.92" r="6.36"/>
</g>
</g>
<g transform="matrix(-.18709 .18709 .18709 .18709 136.74 137.07)">
<path class="cls-2" transform="translate(-57.37,-42.6)" d="m57.37 129v15.4a11.7 11.7 0 0011.71 11.7h15.35a64.44 64.44 0 01-27.06-27.1z"/>
<path class="cls-2" transform="translate(-57.37,-42.6)" d="m57.48 99.41a56.7 56.7 0 0056.7 56.69h.91a3.84 3.84 0 00-1-.14 56.6 56.6 0 1156.59-56.6 3.76 3.76 0 00.14 1v-.89a56.7 56.7 0 10-113.39 0z"/>
<path class="cls-2" transform="translate(-57.37,-42.6)" d="m114.13 42.76a56.6 56.6 0 100 113.19 3.84 3.84 0 011 .14h44.08a11.7 11.7 0 0011.7-11.7v-44.09a3.76 3.76 0 01-.14-1 56.65 56.65 0 00-56.64-56.54zm36.22 20.37a51.27 51.27 0 010 72.45 3.7123 3.7123 0 01-5.25-5.25 43.85 43.85 0 000-62 3.7123 3.7123 0 115.25-5.25zm2.36 36.22a38.62 38.62 0 01-38.58 38.58 3.72 3.72 0 110-7.43 31.15 31.15 0 10-31.13-31.15 3.72 3.72 0 11-7.43 0 38.58 38.58 0 0177.16 0zm-38 19.19a18.6 18.6 0 005.46-.82l.26-.08.22-.08a18.46 18.46 0 006.94-4.38l.21-.19.19-.21a18.46 18.46 0 004.38-6.94c0-.07.05-.15.08-.22s0-.18.08-.26a18.6 18.6 0 00.82-5.46 3.94 3.94 0 01.08-.77 18.59 18.59 0 00-5.43-12.7 3.72 3.72 0 015.26-5.26 26.35 26.35 0 01-37.26 37.27 3.72 3.72 0 015.26-5.26 18.52 18.52 0 0012.7 5.44 3.94 3.94 0 01.79-.08zm-23-15.47a3.72 3.72 0 01-3.72-3.72 26.1 26.1 0 0126.07-26.06 3.72 3.72 0 010 7.43 18.66 18.66 0 00-18.57 18.63 3.71 3.71 0 01-3.71 3.72zm-13.47 32.81c-.12-.1-.23-.19-.34-.3a51.28 51.28 0 01-10.9-16.13c-.07-.17-.14-.33-.2-.5l-.2-.47a50.92 50.92 0 01-3.7-19.13 3.15 3.15 0 010-.44 51.06 51.06 0 0115-35.78 3.72 3.72 0 115.26 5.25 43.88 43.88 0 00-9.66 47.33l.16.39.18.43a43.86 43.86 0 0040.29 26.62 3.75 3.75 0 012.63 1.09 3.73 3.73 0 01-2.63 6.35 51.06 51.06 0 01-35.89-14.71z"/>
<path class="cls-2" transform="translate(-57.37,-42.6)" d="m84.44 42.6h-15.36a11.71 11.71 0 00-11.71 11.71v15.36a64.49 64.49 0 0127.07-27.07z"/>
<path class="cls-2" transform="translate(-57.37,-42.6)" d="m159.4 54.08a63.79 63.79 0 0111.47 15.57v-15.34a11.71 11.71 0 00-11.7-11.71h-15.35a64.14 64.14 0 0115.58 11.48z"/>
</g>
<g transform="matrix(.18709 -.18709 .18709 .18709 -211.27 157.81)">
<g stroke-width="1.0016">
<circle class="cls-3" cx="454.35" cy="980.77" r="6.31"/>
<circle class="cls-3" transform="rotate(-13.28 274.95 1248.7)" cx="486.5" cy="1023.4" r="6.31"/>
<circle class="cls-3" transform="rotate(-13.28 249.7 1248.7)" cx="461.27" cy="1023.4" r="6.31"/>
<circle class="cls-3" transform="rotate(-13.28 319.07 1223.4)" cx="530.65" cy="998.15" r="12.61"/>
<circle class="cls-3" cx="378.67" cy="955.54" r="6.31"/>
<circle class="cls-3" cx="479.58" cy="930.31" r="6.31"/>
<circle class="cls-3" cx="454.35" cy="930.31" r="6.31"/>
<circle class="cls-3" cx="378.67" cy="930.31" r="6.31"/>
<circle class="cls-3" cx="479.58" cy="905.09" r="6.31"/>
<circle class="cls-3" transform="rotate(-45 431.61 995.64)" cx="511.72" cy="947.69" r="12.61"/>
<circle class="cls-3" transform="rotate(-13.28 274.93 1173)" cx="486.5" cy="947.69" r="6.31"/>
<circle class="cls-3" transform="rotate(-13.28 249.68 1173)" cx="461.27" cy="947.69" r="6.31"/>
<circle class="cls-3" cx="378.67" cy="905.09" r="6.31"/>
<circle class="cls-3" transform="rotate(-13.28 325.38 1148)" cx="536.95" cy="922.68" r="6.31"/>
<circle class="cls-3" cx="454.35" cy="879.86" r="6.31"/>
<circle class="cls-3" transform="rotate(-13.28 274.95 1147.8)" cx="486.5" cy="922.46" r="6.31"/>
</g>
<circle class="cls-3" transform="matrix(.97 -.23 .23 .97 -256.97 88.05)" cx="461.27" cy="922.46" r="6.31" stroke-width="1.0047"/>
<g stroke-width="1.0016">
<circle class="cls-3" transform="rotate(-13.28 224.45 1248.7)" cx="436.04" cy="1023.4" r="6.31"/>
<circle class="cls-3" transform="rotate(-13.28 227.61 1150.9)" cx="439.19" cy="925.62" r="9.46"/>
<circle class="cls-3" transform="rotate(-13.28 325.41 1248.7)" cx="536.95" cy="1023.4" r="6.31"/>
<circle class="cls-3" transform="rotate(-13.28 262.29 1210.8)" cx="473.88" cy="985.53" r="25.23"/>
</g>
</g>
<g transform="matrix(.18709 -.18709 .18709 .18709 -257.81 344.18)">
<path class="cls-1" transform="translate(-57.37,-42.6)" d="m784.59 493.37h-25.2a6.3 6.3 0 100 12.6h25.2a6.29 6.29 0 000-12.58z"/>
<path class="cls-1" transform="translate(-57.37,-42.6)" d="m740.49 499.66a6.3 6.3 0 10-6.3 6.3 6.3 6.3 0 006.3-6.3z"/>
<path class="cls-1" transform="translate(-57.37,-42.6)" d="m709 493.36h-25.2a6.3 6.3 0 100 12.6h25.2a6.3 6.3 0 000-12.6z"/>
<path class="cls-1" transform="translate(-57.37,-42.6)" d="m784.59 468.16h-50.4a6.3 6.3 0 000 12.6h50.4a6.3 6.3 0 000-12.6z"/>
<path class="cls-1" transform="translate(-57.37,-42.6)" d="m709 479.19a4.73 4.73 0 10-4.73-4.73 4.72 4.72 0 004.73 4.73z"/>
<path class="cls-1" transform="translate(-57.37,-42.6)" d="m683.8 470.92a3.54 3.54 0 103.54 3.54 3.53 3.53 0 00-3.54-3.54z"/>
<path class="cls-1" transform="translate(-57.37,-42.6)" d="m683.8 445.72a3.55 3.55 0 103.54 3.54 3.54 3.54 0 00-3.54-3.54z"/>
<path class="cls-1" transform="translate(-57.37,-42.6)" d="m683.8 520.13a4.73 4.73 0 104.72 4.72 4.72 4.72 0 00-4.72-4.72z"/>
<path class="cls-1" transform="translate(-57.37,-42.6)" d="m784.59 443a6.3 6.3 0 106.3 6.3 6.31 6.31 0 00-6.3-6.3z"/>
<path class="cls-1" transform="translate(-57.37,-42.6)" d="m754.67 449.26a4.72 4.72 0 104.72-4.72 4.72 4.72 0 00-4.72 4.72z"/>
<path class="cls-1" transform="translate(-57.37,-42.6)" d="m730.65 449.26a3.55 3.55 0 103.54-3.54 3.55 3.55 0 00-3.54 3.54z"/>
<path class="cls-1" transform="translate(-57.37,-42.6)" d="m709 452.81a3.55 3.55 0 10-3.55-3.55 3.55 3.55 0 003.55 3.55z"/>
<path class="cls-1" transform="translate(-57.37,-42.6)" d="m759.39 430.37h25.2a6.3 6.3 0 000-12.6h-25.2a6.3 6.3 0 100 12.6z"/>
<path class="cls-1" transform="translate(-57.37,-42.6)" d="m734.19 430.37a6.3 6.3 0 10-6.3-6.3 6.3 6.3 0 006.3 6.3z"/>
<circle class="cls-1" cx="645.32" cy="482.25" r="6.3"/>
<path class="cls-1" transform="translate(-57.37,-42.6)" d="m709 428.79a4.73 4.73 0 10-4.72-4.72 4.72 4.72 0 004.72 4.72z"/>
<path class="cls-1" transform="translate(-57.37,-42.6)" d="m683.79 427.61a3.55 3.55 0 10-3.54-3.54 3.54 3.54 0 003.54 3.54z"/>
<path class="cls-1" transform="translate(-57.37,-42.6)" d="m784.59 518.57h-63a6.3 6.3 0 100 12.59h63a6.29 6.29 0 000-12.57z"/>
</g>
<g transform="matrix(.18709 -.18709 .18709 .18709 -1.2035 228.11)">
<circle class="cls-2" transform="rotate(-13.28 -11.378 661.29)" cx="200.25" cy="436.09" r="3.78"/>
<circle class="cls-2" cx="168.07" cy="393.49" r="3.78"/>
<circle class="cls-2" cx="193.27" cy="393.49" r="3.78"/>
<circle class="cls-2" cx="218.46" cy="393.49" r="3.78"/>
<path class="cls-2" transform="translate(-57.37,-42.6)" d="m187.65 455a6.3 6.3 0 10-6.3-6.3 6.3 6.3 0 006.3 6.3zm0-10.08a3.78 3.78 0 11-3.78 3.78 3.78 3.78 0 013.78-3.79z"/>
<path class="cls-2" transform="translate(-57.37,-42.6)" d="m212.84 455a6.3 6.3 0 10-6.29-6.3 6.3 6.3 0 006.29 6.3zm0-10.08a3.78 3.78 0 11-3.77 3.78 3.78 3.78 0 013.77-3.79z"/>
<path class="cls-2" transform="translate(-57.37,-42.6)" d="m238 455a6.3 6.3 0 10-6.3-6.3 6.3 6.3 0 006.3 6.3zm0-10.08a3.78 3.78 0 11-3.78 3.78 3.78 3.78 0 013.78-3.79z"/>
<path class="cls-2" transform="translate(-57.37,-42.6)" d="m263.24 455a6.3 6.3 0 10-6.3-6.3 6.3 6.3 0 006.3 6.3zm0-10.08a3.78 3.78 0 11-3.78 3.78 3.78 3.78 0 013.78-3.79z"/>
<path class="cls-2" transform="translate(-57.37,-42.6)" d="m288.44 442.39a6.3 6.3 0 106.29 6.3 6.3 6.3 0 00-6.29-6.3zm0 10.08a3.78 3.78 0 113.77-3.78 3.78 3.78 0 01-3.77 3.78z"/>
<path class="cls-2" transform="translate(-57.37,-42.6)" d="m200.25 467.59a6.3 6.3 0 10-6.3-6.3 6.3 6.3 0 006.3 6.3zm0-10.08a3.78 3.78 0 11-3.78 3.78 3.78 3.78 0 013.78-3.78z"/>
<path class="cls-2" transform="translate(-57.37,-42.6)" d="m225.44 467.59a6.3 6.3 0 10-6.3-6.3 6.3 6.3 0 006.3 6.3zm0-10.08a3.78 3.78 0 11-3.78 3.78 3.78 3.78 0 013.78-3.78z"/>
<path class="cls-2" transform="translate(-57.37,-42.6)" d="m250.64 467.59a6.3 6.3 0 10-6.3-6.3 6.3 6.3 0 006.3 6.3zm0-10.08a3.78 3.78 0 11-3.78 3.78 3.78 3.78 0 013.78-3.78z"/>
<path class="cls-2" transform="translate(-57.37,-42.6)" d="m275.84 455a6.3 6.3 0 106.3 6.3 6.3 6.3 0 00-6.3-6.3zm0 10.08a3.78 3.78 0 113.78-3.78 3.78 3.78 0 01-3.78 3.77z"/>
<circle class="cls-2" cx="142.87" cy="443.88" r="3.78"/>
<circle class="cls-2" transform="rotate(-13.28 13.839 711.68)" cx="225.44" cy="486.49" r="3.78"/>
<circle class="cls-2" transform="rotate(-13.28 39 711.69)" cx="250.64" cy="486.49" r="3.78"/>
<circle class="cls-2" transform="rotate(-13.28 64.204 711.71)" cx="275.84" cy="486.49" r="3.78"/>
<path class="cls-2" transform="translate(-57.37,-42.6)" d="m187.65 505.38a6.3 6.3 0 10-6.3-6.29 6.3 6.3 0 006.3 6.29zm0-10.07a3.78 3.78 0 11-3.78 3.78 3.78 3.78 0 013.78-3.78z"/>
<path class="cls-2" transform="translate(-57.37,-42.6)" d="m212.84 492.79a6.3 6.3 0 106.3 6.3 6.3 6.3 0 00-6.3-6.3zm0 10.08a3.78 3.78 0 113.78-3.78 3.78 3.78 0 01-3.78 3.78z"/>
<path class="cls-2" transform="translate(-57.37,-42.6)" d="m238 492.79a6.3 6.3 0 106.3 6.3 6.3 6.3 0 00-6.3-6.3zm0 10.08a3.78 3.78 0 113.78-3.78 3.78 3.78 0 01-3.78 3.78z"/>
<path class="cls-2" transform="translate(-57.37,-42.6)" d="m263.24 492.79a6.3 6.3 0 106.3 6.3 6.3 6.3 0 00-6.3-6.3zm0 10.08a3.78 3.78 0 113.78-3.78 3.78 3.78 0 01-3.78 3.78z"/>
<path class="cls-2" transform="translate(-57.37,-42.6)" d="m288.44 492.79a6.3 6.3 0 106.29 6.3 6.3 6.3 0 00-6.29-6.3zm0 10.08a3.78 3.78 0 113.77-3.78 3.78 3.78 0 01-3.77 3.78z"/>
<path class="cls-2" transform="translate(-57.37,-42.6)" d="m200.25 505.38a6.3 6.3 0 106.3 6.3 6.31 6.31 0 00-6.3-6.3zm0 10.08a3.78 3.78 0 113.78-3.78 3.78 3.78 0 01-3.78 3.78z"/>
<path class="cls-2" transform="translate(-57.37,-42.6)" d="m225.44 505.38a6.3 6.3 0 106.3 6.3 6.31 6.31 0 00-6.3-6.3zm0 10.08a3.78 3.78 0 113.78-3.78 3.78 3.78 0 01-3.78 3.78z"/>
<path class="cls-2" transform="translate(-57.37,-42.6)" d="m250.64 505.38a6.3 6.3 0 106.3 6.3 6.31 6.31 0 00-6.3-6.3zm0 10.08a3.78 3.78 0 113.78-3.78 3.78 3.78 0 01-3.78 3.78z"/>
<path class="cls-2" transform="translate(-57.37,-42.6)" d="m275.84 505.38a6.3 6.3 0 106.3 6.3 6.31 6.31 0 00-6.3-6.3zm0 10.08a3.78 3.78 0 113.78-3.78 3.78 3.78 0 01-3.78 3.78z"/>
<circle class="cls-2" cx="130.27" cy="431.28" r="6.3"/>
<circle class="cls-2" cx="155.47" cy="431.28" r="6.3"/>
<circle class="cls-2" transform="rotate(-13.28 26.407 699.08)" cx="238.04" cy="473.89" r="6.3"/>
<circle class="cls-2" transform="rotate(-13.28 51.611 699.1)" cx="263.24" cy="473.89" r="6.3"/>
<circle class="cls-2" cx="231.06" cy="431.28" r="6.3"/>
<path class="cls-2" transform="translate(-57.37,-42.6)" d="m187.65 429.79a6.29 6.29 0 002.26-12.17 11.72 11.72 0 00-8.13 8.14 6.29 6.29 0 005.87 4.03z"/>
<circle class="cls-2" cx="155.47" cy="380.89" r="6.3"/>
<circle class="cls-2" transform="rotate(-13.28 26.398 648.67)" cx="238.04" cy="423.5" r="6.3"/>
<circle class="cls-2" transform="rotate(-13.28 51.602 648.69)" cx="263.24" cy="423.5" r="6.3"/>
<path class="cls-2" transform="translate(-57.37,-42.6)" d="m282.14 423.5a6.3 6.3 0 0012.17 2.26 11.75 11.75 0 00-8.14-8.14 6.3 6.3 0 00-4.03 5.88z"/>
<path class="cls-2" transform="translate(-57.37,-42.6)" d="m194 524.28a6.29 6.29 0 00-12.22-2.28 11.69 11.69 0 008.13 8.13 6.29 6.29 0 004.09-5.85z"/>
<circle class="cls-2" cx="155.47" cy="481.68" r="6.3"/>
<circle class="cls-2" transform="rotate(-13.28 26.415 749.49)" cx="238.04" cy="524.28" r="6.3"/>
<circle class="cls-2" transform="rotate(-13.28 51.619 749.51)" cx="263.24" cy="524.28" r="6.3"/>
<path class="cls-2" transform="translate(-57.37,-42.6)" d="m288.44 518a6.3 6.3 0 00-2.27 12.17 11.72 11.72 0 008.14-8.13 6.3 6.3 0 00-5.87-4.04z"/>
</g>
<g transform="matrix(-.18709 .18709 .18709 .18709 66.636 -26.114)">
<path class="cls-3" transform="translate(-57.37,-42.6)" d="m309.11 1085.3v-1.77a2.65 2.65 0 00-2.65-2.66h-.89v7.09h.89a2.65 2.65 0 002.65-2.66z"/>
<path class="cls-3" transform="translate(-57.37,-42.6)" d="m321.81 1040.3a2.66 2.66 0 002.66 2.66 2.66 2.66 0 002.66-2.66z"/>
<path class="cls-3" transform="translate(-57.37,-42.6)" d="m356.59 1153.7h11.34a5.67 5.67 0 00-11.34 0z"/>
<path class="cls-3" transform="translate(-57.37,-42.6)" d="m305.57 1127.9a5.67 5.67 0 100-11.34z"/>
<path class="cls-3" transform="translate(-57.37,-42.6)" d="m311.24 1071.8a5.67 5.67 0 00-5.67-5.67v11.34a5.67 5.67 0 005.67-5.67z"/>
<path class="cls-3" transform="translate(-57.37,-42.6)" d="m309.11 1135.7v-1.78a2.64 2.64 0 00-2.65-2.65h-.89v7.08h.89a2.65 2.65 0 002.65-2.65z"/>
<path class="cls-3" transform="translate(-57.37,-42.6)" d="m374.86 1046a5.67 5.67 0 005.67-5.67h-11.34a5.67 5.67 0 005.67 5.67z"/>
<path class="cls-3" transform="translate(-57.37,-42.6)" d="m413.29 1084.4a5.66 5.66 0 005.67 5.66v-11.33a5.67 5.67 0 00-5.67 5.67z"/>
<path class="cls-3" transform="translate(-57.37,-42.6)" d="m415.77 1133.5 1.33 1.33-1.33 1.33a1.42 1.42 0 102 2l1.23-1.12v-4.34l-1.17-1.17a1.42 1.42 0 10-2 2z"/>
<path class="cls-3" transform="translate(-57.37,-42.6)" d="m384.12 1150.4a1.43 1.43 0 000 2l1.33 1.33h4l1.32-1.33a1.42 1.42 0 00-2-2l-1.33 1.32-1.33-1.32a1.41 1.41 0 00-1.99 0z"/>
<rect class="cls-3" x="277.04" y="1089.5" width="5.31" height="5.31" rx="2.65"/>
<rect class="cls-3" x="263.55" y="1063.4" width="7.09" height="7.09" rx="2.65"/>
<rect class="cls-3" x="263.55" y="1038.2" width="7.09" height="7.09" rx="2.65"/>
<circle class="cls-3" cx="260.8" cy="1098.5" r="2.66"/>
<rect class="cls-3" x="274.97" y="1037.1" width="9.45" height="9.45" rx="2.65"/>
<rect class="cls-3" x="264.44" y="1026.5" width="5.31" height="5.31" rx="2.65"/>
<rect class="cls-3" x="274.97" y="1024.5" width="9.45" height="9.45" rx="2.65"/>
<rect class="cls-3" x="276.15" y="1013" width="7.09" height="7.09" rx="2.65"/>
<rect class="cls-3" x="301.35" y="1088.6" width="7.09" height="7.09" rx="2.65"/>
<path class="cls-3" transform="translate(-57.37,-42.6)" d="m357.54 1120.1v4.14a2.66 2.66 0 002.65 2.66h29.34a2.66 2.66 0 002.66-2.66v-4.14a2.65 2.65 0 00-2.66-2.65h-29.34a2.65 2.65 0 00-2.65 2.65z"/>
<rect class="cls-3" x="287.19" y="1049.3" width="10.2" height="10.2" rx="5.1"/>
<rect class="cls-3" x="287.19" y="1036.7" width="10.2" height="10.2" rx="5.1"/>
<path class="cls-3" transform="translate(-57.37,-42.6)" d="m380 1109.6a5.1 5.1 0 10-5.1 5.1 5.1 5.1 0 005.1-5.1z"/>
<path class="cls-3" transform="translate(-57.37,-42.6)" d="m344.94 1050.8v23a2.66 2.66 0 002.66 2.65h29.33a2.66 2.66 0 002.66-2.65v-4.14a2.66 2.66 0 00-2.66-2.66h-19.88a2.66 2.66 0 01-2.66-2.65v-13.59a2.65 2.65 0 00-2.65-2.65h-4.14a2.65 2.65 0 00-2.66 2.69z"/>
<rect class="cls-3" x="325.84" y="1050.1" width="8.5" height="8.5" rx="2.39"/>
<circle class="cls-3" cx="348.99" cy="1067" r="5.67"/>
<rect class="cls-3" x="325.84" y="1037.5" width="8.5" height="8.5" rx="2.39"/>
<rect class="cls-3" x="313.95" y="1013" width="7.09" height="7.09" rx="2.65"/>
<rect class="cls-3" x="327.43" y="1013.9" width="5.31" height="5.31" rx="2.65"/>
<rect class="cls-3" x="340.03" y="1089.5" width="5.31" height="5.31" rx="2.65"/>
<rect class="cls-3" x="339.14" y="1025.6" width="7.09" height="7.09" rx="2.65"/>
<path class="cls-3" transform="translate(-57.37,-42.6)" d="m384.12 1068.5a1.43 1.43 0 000 2l1.33 1.33-1.33 1.32a1.42 1.42 0 102 2l1.33-1.33 1.33 1.33a1.42 1.42 0 102-2l-1.32-1.32 1.32-1.33a1.42 1.42 0 00-2-2l-1.33 1.32-1.33-1.32a1.41 1.41 0 00-2 0z"/>
<path class="cls-3" transform="translate(-57.37,-42.6)" d="m384.12 1106.2a1.44 1.44 0 000 2l1.33 1.32-1.33 1.33a1.43 1.43 0 000 2 1.41 1.41 0 002 0l1.33-1.32 1.33 1.32a1.42 1.42 0 102-2l-1.32-1.33 1.32-1.32a1.42 1.42 0 00-2-2l-1.33 1.33-1.33-1.33a1.43 1.43 0 00-2 0z"/>
<path class="cls-3" transform="translate(-57.37,-42.6)" d="m315.21 1062.5a1.43 1.43 0 000-2l-1.33-1.33 1.33-1.33a1.43 1.43 0 000-2 1.41 1.41 0 00-2 0l-1.33 1.32-1.33-1.32a1.41 1.41 0 00-2 0 1.43 1.43 0 000 2l1.33 1.33-1.33 1.33a1.42 1.42 0 002 2l1.33-1.33 1.33 1.33a1.43 1.43 0 002 0z"/>
<path class="cls-3" transform="translate(-57.37,-42.6)" d="m353 1112.9a1.43 1.43 0 000-2l-1.33-1.33 1.33-1.32a1.43 1.43 0 00-2-2l-1.32 1.33-1.33-1.33a1.42 1.42 0 00-2 2l1.32 1.32-1.32 1.33a1.42 1.42 0 102 2l1.33-1.32 1.32 1.32a1.42 1.42 0 002 0z"/>
<path class="cls-3" transform="translate(-57.37,-42.6)" d="m327.81 1125.5a1.43 1.43 0 000-2l-1.33-1.33 1.33-1.33a1.42 1.42 0 00-2-2l-1.33 1.33-1.33-1.33a1.43 1.43 0 00-2 0 1.41 1.41 0 000 2l1.32 1.33-1.32 1.33a1.42 1.42 0 102 2l1.33-1.32 1.33 1.32a1.41 1.41 0 002 0z"/>
</g>
</g>
</g>
</svg>
